<svg width="24" height="25" viewBox="0 0 24 25" fill="none" xmlns="http://www.w3.org/2000/svg">
<mask id="mask0_69978_5632" style="mask-type:alpha" maskUnits="userSpaceOnUse" x="0" y="0" width="24" height="25">
<rect y="0.5" width="24" height="24" fill="#D9D9D9"/>
</mask>
<g mask="url(#mask0_69978_5632)">
<path d="M16.1 13.8001L14.65 12.3501C14.8 11.5668 14.575 10.8334 13.975 10.1501C13.375 9.46676 12.6 9.2001 11.65 9.3501L10.2 7.9001C10.4834 7.76676 10.7709 7.66676 11.0625 7.6001C11.3542 7.53343 11.6667 7.5001 12 7.5001C13.25 7.5001 14.3125 7.9376 15.1875 8.8126C16.0625 9.6876 16.5 10.7501 16.5 12.0001C16.5 12.3334 16.4667 12.6459 16.4 12.9376C16.3334 13.2293 16.2334 13.5168 16.1 13.8001ZM19.3 16.9501L17.85 15.5501C18.4834 15.0668 19.0459 14.5376 19.5375 13.9626C20.0292 13.3876 20.45 12.7334 20.8 12.0001C19.9667 10.3168 18.7709 8.97926 17.2125 7.9876C15.6542 6.99593 13.9167 6.5001 12 6.5001C11.5167 6.5001 11.0417 6.53343 10.575 6.6001C10.1084 6.66676 9.65005 6.76676 9.20005 6.9001L7.65005 5.3501C8.33338 5.06676 9.03338 4.85426 9.75005 4.7126C10.4667 4.57093 11.2167 4.5001 12 4.5001C14.3834 4.5001 16.525 5.12926 18.425 6.3876C20.325 7.64593 21.75 9.28343 22.7 11.3001C22.75 11.3834 22.7834 11.4876 22.8 11.6126C22.8167 11.7376 22.825 11.8668 22.825 12.0001C22.825 12.1334 22.8125 12.2626 22.7875 12.3876C22.7626 12.5126 22.7334 12.6168 22.7 12.7001C22.3167 13.5501 21.8375 14.3334 21.2625 15.0501C20.6875 15.7668 20.0334 16.4001 19.3 16.9501ZM19.1 22.4001L15.6 18.9501C15.0167 19.1334 14.4292 19.2709 13.8375 19.3626C13.2459 19.4543 12.6334 19.5001 12 19.5001C9.61672 19.5001 7.47505 18.8709 5.57505 17.6126C3.67505 16.3543 2.25005 14.7168 1.30005 12.7001C1.25005 12.6168 1.21672 12.5126 1.20005 12.3876C1.18338 12.2626 1.17505 12.1334 1.17505 12.0001C1.17505 11.8668 1.18338 11.7418 1.20005 11.6251C1.21672 11.5084 1.25005 11.4084 1.30005 11.3251C1.65005 10.5751 2.06672 9.88343 2.55005 9.2501C3.03338 8.61676 3.56672 8.03343 4.15005 7.5001L2.07505 5.4001C1.89172 5.21676 1.80005 4.9876 1.80005 4.7126C1.80005 4.4376 1.90005 4.2001 2.10005 4.0001C2.28338 3.81676 2.51672 3.7251 2.80005 3.7251C3.08338 3.7251 3.31672 3.81676 3.50005 4.0001L20.5 21.0001C20.6834 21.1834 20.7792 21.4126 20.7875 21.6876C20.7959 21.9626 20.7001 22.2001 20.5 22.4001C20.3167 22.5834 20.0834 22.6751 19.8 22.6751C19.5167 22.6751 19.2834 22.5834 19.1 22.4001ZM5.55005 8.9001C5.06672 9.33343 4.62505 9.80843 4.22505 10.3251C3.82505 10.8418 3.48338 11.4001 3.20005 12.0001C4.03338 13.6834 5.22922 15.0209 6.78755 16.0126C8.34588 17.0043 10.0834 17.5001 12 17.5001C12.3334 17.5001 12.6584 17.4793 12.975 17.4376C13.2917 17.3959 13.6167 17.3501 13.95 17.3001L13.05 16.3501C12.8667 16.4001 12.6917 16.4376 12.525 16.4626C12.3584 16.4876 12.1834 16.5001 12 16.5001C10.75 16.5001 9.68755 16.0626 8.81255 15.1876C7.93755 14.3126 7.50005 13.2501 7.50005 12.0001C7.50005 11.8168 7.51255 11.6418 7.53755 11.4751C7.56255 11.3084 7.60005 11.1334 7.65005 10.9501L5.55005 8.9001Z" fill="#A8A8A8"/>
</g>
</svg>
